<?xml version="1.0" standalone="no"?>
<!DOCTYPE svg PUBLIC "-//W3C//DTD SVG 20010904//EN"
 "http://www.w3.org/TR/2001/REC-SVG-20010904/DTD/svg10.dtd">
<svg version="1.0" xmlns="http://www.w3.org/2000/svg"
 width="512.000000pt" height="512.000000pt" viewBox="0 0 512.000000 512.000000"
 preserveAspectRatio="xMidYMid meet">
<metadata>
Created by potrace 1.14, written by Peter Selinger 2001-2017
</metadata>
<g transform="translate(0.000000,512.000000) scale(0.100000,-0.100000)"
fill="#000000" stroke="none">
<path d="M2664 4938 c-63 -21 -108 -51 -160 -106 l-32 -34 -64 14 c-191 42
-381 -67 -439 -254 -58 -185 24 -373 199 -455 29 -14 71 -27 93 -30 35 -5 40
-9 49 -42 20 -76 91 -403 88 -406 -2 -2 -37 -26 -78 -53 -204 -133 -346 -346
-376 -563 -4 -24 -16 -59 -28 -79 -51 -84 -69 -184 -52 -292 9 -57 50 -164 72
-189 16 -17 15 -19 -7 -28 -121 -46 -87 -221 43 -221 51 0 94 38 106 93 l9 42
12 -45 c32 -119 90 -210 156 -246 19 -10 35 -21 35 -25 0 -7 -110 -107 -175
-160 -22 -17 -69 -46 -105 -62 -56 -27 -78 -31 -155 -33 -120 -3 -209 12 -200
34 29 76 5 168 -56 215 -154 116 -527 51 -764 -133 -199 -155 -193 -352 12
-417 71 -22 220 -20 325 6 75 18 231 79 263 103 91 69 107 78 123 70 15 -8 61
-20 142 -38 14 -3 70 -7 125 -9 121 -4 205 12 297 58 l66 33 -15 -36 c-48
-114 -75 -202 -98 -327 -12 -69 -20 -170 -19 -258 2 -85 6 -113 33 -186 37
-101 86 -179 160 -254 l54 -55 88 0 c85 0 89 -1 86 -22 -2 -11 2 -58 9 -102 8
-45 14 -83 14 -85 0 -2 -7 -1 -15 3 -8 3 -19 -3 -25 -13 -6 -12 -30 -24 -62
-31 -56 -13 -88 -34 -88 -57 0 -7 -4 -13 -10 -13 -5 0 -10 -9 -10 -19 0 -18 8
-19 100 -18 55 1 100 5 100 8 0 4 15 6 34 5 19 0 32 -5 28 -10 -3 -5 1 -5 9 0
8 5 32 10 54 10 22 1 41 3 43 4 1 1 6 3 11 4 15 2 26 16 13 16 -7 0 -12 14
-12 31 0 17 -9 65 -20 107 -10 43 -21 101 -24 130 l-5 52 239 0 c207 0 239 -2
244 -16 8 -20 0 -89 -20 -181 -8 -40 -14 -83 -12 -95 2 -14 -2 -22 -9 -21 -7
2 -13 -6 -13 -18 0 -11 4 -18 9 -15 5 4 12 0 14 -6 4 -9 6 -9 6 -2 1 8 12 9
35 4 19 -4 37 -6 40 -3 5 5 65 6 198 1 53 -2 92 -1 87 3 -6 3 -10 9 -9 13 1 4
-3 20 -10 36 -13 32 -25 38 -104 55 -66 13 -77 33 -69 118 4 39 7 84 6 99 l-1
28 102 0 103 0 30 37 c68 86 121 186 156 292 29 91 30 327 2 461 -3 14 -7 37
-10 52 -8 43 -65 209 -87 251 -11 22 -18 41 -16 43 2 2 17 -3 32 -11 57 -30
138 -48 191 -42 66 7 122 35 180 91 l45 43 -5 -49 c-5 -44 -4 -49 17 -57 43
-16 51 -4 63 99 3 25 8 64 11 88 3 24 18 72 35 107 33 72 36 105 13 140 -9 13
-13 28 -11 32 3 5 8 35 12 68 3 33 8 69 11 80 4 19 7 41 20 145 3 25 7 56 9
70 3 14 9 59 15 100 6 41 12 84 15 95 2 11 4 23 4 28 1 4 12 5 26 1 33 -8 80
12 93 39 51 109 122 296 122 323 0 51 -37 69 -195 95 -127 20 -147 21 -170 9
-15 -8 -30 -21 -35 -30 -5 -9 -12 -92 -15 -184 -8 -191 -3 -207 65 -227 21 -7
38 -15 35 -18 -2 -4 -6 -25 -9 -46 -4 -39 -42 -313 -52 -385 -3 -19 -7 -46 -9
-60 -3 -14 -7 -45 -10 -70 -3 -24 -12 -48 -19 -52 -8 -4 -46 -58 -85 -120 -81
-129 -84 -134 -129 -171 -64 -52 -120 -35 -287 88 -103 76 -116 100 -69 125
49 27 103 110 135 210 10 30 18 50 18 44 1 -6 9 -20 19 -31 63 -72 171 -50
199 40 15 48 -14 114 -57 130 -32 12 -38 28 -16 46 28 23 44 120 32 191 -4 25
-10 59 -13 75 -2 17 -6 80 -8 141 -6 220 -78 392 -228 547 -64 65 -145 128
-208 161 l-36 19 14 61 c8 34 33 137 56 230 l42 170 50 29 c125 72 196 193
196 332 0 144 -85 277 -217 341 -48 22 -75 28 -146 30 -58 2 -101 -2 -129 -11
l-41 -15 -52 53 c-106 107 -251 143 -392 95z m1490 -1784 l47 -7 -7 -41 c-3
-23 -8 -48 -9 -57 -2 -9 -7 -40 -10 -70 -9 -63 -13 -86 -19 -114 -2 -11 -5
-31 -5 -44 -1 -21 -4 -23 -38 -16 -21 4 -41 12 -45 18 -8 12 -1 273 8 315 5
24 9 25 78 16z m178 -30 c20 -3 39 -13 43 -22 4 -10 -18 -79 -52 -165 -60
-153 -72 -168 -119 -150 -20 8 -20 8 7 178 15 94 28 171 28 173 1 2 13 1 29
-2 15 -3 44 -8 64 -12z m-2395 -391 c-12 -16 -31 -17 -21 -2 4 7 8 26 9 43 5
58 8 61 14 16 4 -25 3 -51 -2 -57z"/>
<path d="M2735 250 c-4 -6 -10 -8 -14 -6 -4 3 -8 -1 -8 -9 0 -13 4 -12 19 2
18 16 22 23 14 23 -3 0 -8 -5 -11 -10z"/>
<path d="M2995 249 c-4 -6 -5 -12 -2 -15 2 -3 7 2 10 11 7 17 1 20 -8 4z"/>
<path d="M2913 215 c0 -8 4 -12 9 -9 5 3 6 10 3 15 -9 13 -12 11 -12 -6z"/>
<path d="M2515 211 c-3 -5 -2 -12 3 -15 5 -3 9 1 9 9 0 17 -3 19 -12 6z"/>
<path d="M2790 216 c0 -2 8 -10 18 -17 15 -13 16 -12 3 4 -13 16 -21 21 -21
13z"/>
<path d="M2190 199 c0 -5 5 -7 10 -4 6 3 10 8 10 11 0 2 -4 4 -10 4 -5 0 -10
-5 -10 -11z"/>
<path d="M2230 206 c0 -2 7 -7 16 -10 8 -3 12 -2 9 4 -6 10 -25 14 -25 6z"/>
<path d="M3190 196 c7 -7 13 -7 20 0 6 6 3 10 -10 10 -13 0 -16 -4 -10 -10z"/>
<path d="M2473 185 c0 -8 4 -12 9 -9 5 3 6 10 3 15 -9 13 -12 11 -12 -6z"/>
<path d="M2673 185 c0 -8 4 -12 9 -9 5 3 6 10 3 15 -9 13 -12 11 -12 -6z"/>
<path d="M2840 180 c-9 -6 -10 -10 -3 -10 6 0 15 5 18 10 8 12 4 12 -15 0z"/>
<path d="M3270 186 c0 -2 7 -7 16 -10 8 -3 12 -2 9 4 -6 10 -25 14 -25 6z"/>
</g>
</svg>
